<?xml version="1.0" encoding="UTF-8"?>
<svg xmlns="http://www.w3.org/2000/svg" version="1.1" viewBox="0 0 186 41">
  <defs>
    <style>
      .cls-1 {
        fill: #040000;
      }
    </style>
  </defs>
  <!-- Generator: Adobe Illustrator 28.7.1, SVG Export Plug-In . SVG Version: 1.2.0 Build 142)  -->
  <g>
    <g id="_圖層_1" data-name="圖層_1">
      <g>
        <path class="cls-1" d="M24.96,12.3c0,6.83-4.57,10.91-11.68,10.91h-5.84c-.66,0-.99-.06-1.38-.22l-.11.11c.11.28.16.72.16,1.38v15.43H.39V1.33h12.4c7.49,0,12.18,4.08,12.18,10.96ZM6.07,18.03c.39-.16.72-.22,1.38-.22h5.4c3.91,0,5.95-2.15,5.95-5.51s-2.04-5.56-5.95-5.56h-5.4c-.66,0-.99-.06-1.38-.22l-.11.11c.11.28.16.72.16,1.43v8.43c0,.72-.05,1.16-.16,1.43l.11.11Z"/>
        <path class="cls-1" d="M46.23.51h.55l18.35,39.39h-6.45l-4.52-10.14h-15.32l-4.52,10.14h-6.45L46.23.51ZM40.44,24.97c.5-.05,1.43-.11,3.09-.11h5.95c1.65,0,2.59.06,3.09.11l.05-.05c-.44-.55-1.05-1.43-1.76-3.14l-2.87-6.78c-.77-1.87-1.27-3.47-1.38-4.41h-.22c-.11.94-.61,2.53-1.38,4.41l-2.86,6.78c-.72,1.71-1.32,2.59-1.76,3.14l.05.05Z"/>
        <path class="cls-1" d="M102.42,1.61l-21.32,33.5.11.17c.77-.72,1.6-.99,3.47-.99h17.63l-2.92,5.62h-27.6l-.17-.28L93,6.18l-.11-.17c-.83.61-1.82.94-4.24.94h-14.71l2.81-5.62h25.56l.11.28Z"/>
        <path class="cls-1" d="M139.99,1.61l-21.32,33.5.11.17c.77-.72,1.6-.99,3.47-.99h17.63l-2.92,5.62h-27.6l-.17-.28,21.38-33.44-.11-.17c-.83.61-1.82.94-4.24.94h-14.71l2.81-5.62h25.56l.11.28Z"/>
        <path class="cls-1" d="M185.61,20.62c0,11.68-8.43,20.11-20.11,20.11s-20.11-8.43-20.11-20.11S153.82.51,165.5.51s20.11,8.43,20.11,20.11ZM165.5,34.89c8.1,0,13.83-5.95,13.83-14.27s-5.73-14.27-13.83-14.27-13.83,5.95-13.83,14.27,5.73,14.27,13.83,14.27Z"/>
      </g>
    </g>
  </g>
</svg>